<svg xmlns="http://www.w3.org/2000/svg" viewBox="0 0 194.43 194.43"><defs><style>.cls-1{fill:#010101;}.cls-2{fill:#242021;}.cls-3{fill:none;}</style></defs><g id="Layer_2" data-name="Layer 2"><g id="Layer_1-2" data-name="Layer 1"><g id="LhmTHo.tif"><path class="cls-1" d="M69.64,95.93V89.76a37.22,37.22,0,0,1,10.43-1.09,37.73,37.73,0,0,1,7.56.91c.47.11.66.27.65.8,0,1.74,0,3.48,0,5.3l3.23.24A171.66,171.66,0,0,1,109.6,98,81.88,81.88,0,0,1,123,101.21a22.57,22.57,0,0,1,5.24,2.63,8.53,8.53,0,0,1,3.72,7c.14,2.75-.12,5.48-.14,8.21-.08,10.38-.11,20.75,0,31.12,0,1.51.29,3,.16,4.53a8.58,8.58,0,0,1-4.17,6.72,31.59,31.59,0,0,1-9,3.76,120.14,120.14,0,0,1-17.53,3.23,173.37,173.37,0,0,1-24.53,1.28,158.55,158.55,0,0,1-32.12-3.74,39.75,39.75,0,0,1-10.4-3.61,14.48,14.48,0,0,1-2.85-2A7.85,7.85,0,0,1,28.66,154c.41-10.91.14-21.82.19-32.73,0-2.89-.22-5.78-.3-8.66a19.7,19.7,0,0,1,.25-3.16,8.46,8.46,0,0,1,4.14-6A26.48,26.48,0,0,1,41,100.19a144.25,144.25,0,0,1,21.94-3.81C65.15,96.19,67.37,96.07,69.64,95.93ZM54,148.65c-.6-1-1.1-1.94-1.72-2.81a12.87,12.87,0,0,0-7-4.69,14.57,14.57,0,0,0-10.24.3c-.34.14-.57.27-.57.73q0,6,0,12a.81.81,0,0,0,.38.75,23.82,23.82,0,0,0,2.32,1.53,42.79,42.79,0,0,0,12.69,4.44,131.37,131.37,0,0,0,20.74,2.29,202.59,202.59,0,0,0,29.66-.73,84.26,84.26,0,0,0,15.12-2.72,32.38,32.38,0,0,0,10.11-4.65,1.18,1.18,0,0,0,.57-1.1c0-3.36,0-6.73,0-10.09,0-1.84,0-1.84-1.74-2.52a15,15,0,0,0-10.87.19,13.31,13.31,0,0,0-7.41,5.94c-.22.38-.49.75-.78,1.2-.33-.71-.65-1.34-.93-2a8.58,8.58,0,0,0-4.57-4.62,16.78,16.78,0,0,0-12.11-.68,10.31,10.31,0,0,0-7,5.92c-.21.5-.5,1-.8,1.57-.39-.76-.75-1.42-1.07-2.1a9.11,9.11,0,0,0-4.27-4.35,16.77,16.77,0,0,0-13.67-.72,10,10,0,0,0-6.06,5.39C54.55,147.6,54.26,148.09,54,148.65Zm28.9-33.73V94c-2.65-.11-5.27-.09-7.89,0V114.9A24.86,24.86,0,0,0,82.87,114.92Z"/><path class="cls-1" d="M81,57.47c.64,3,2.55,5.34,4.16,7.79A33.36,33.36,0,0,1,89,72.39c1.12,3.17,1.25,6.31-.61,9.26A9.4,9.4,0,0,1,80,86.14a11.38,11.38,0,0,1-10.12-5.91c-1.3-2.14-1-4.52-.47-6.85a20.44,20.44,0,0,1,3.6-7A38.73,38.73,0,0,0,76,61.78a8.78,8.78,0,0,0,.83-2.3,2.59,2.59,0,0,1,2.36-2C79.78,57.45,80.34,57.47,81,57.47Zm-1.45,8.45C78,68.39,76.26,70.61,75,73.16a12.2,12.2,0,0,0-.77,2.12c-.58,2.07.24,5.24,2.66,6.24a7.25,7.25,0,0,0,3.28.57,3.59,3.59,0,0,0,3.11-2,7,7,0,0,0,.8-4.25,14,14,0,0,0-.74-3A28.57,28.57,0,0,0,79.52,65.92Z"/></g><g id="aaFdJW"><path class="cls-2" d="M147.26,29.81c.31-.55.62-1.09.94-1.63a1.18,1.18,0,0,1,2.22,0q2.36,4.05,4.69,8.12A1.19,1.19,0,0,1,154,38.24h-9.37a1.2,1.2,0,0,1-1.11-2l1-1.71a23.53,23.53,0,0,0-3.31-1,24.46,24.46,0,0,0-7.68-.41,24.45,24.45,0,0,0-20.43,16A24.43,24.43,0,0,0,128.51,80.7a22.79,22.79,0,0,0,9.27,1.12,24,24,0,0,0,19.06-11.59,22.87,22.87,0,0,0,3.41-9.64,24.11,24.11,0,0,0-1.93-13.09,2.83,2.83,0,0,1,.1-2.93,2.69,2.69,0,0,1,4.71.39,28.43,28.43,0,0,1,2.49,8.57,30.34,30.34,0,0,1,.09,7.19,29.35,29.35,0,0,1-4.25,12.38,29.75,29.75,0,0,1-11,10.52,29.81,29.81,0,0,1-27.56.65,29.83,29.83,0,0,1-13-12.41,29,29,0,0,1-3.29-9.47A29.86,29.86,0,0,1,144,28.72C145.12,29,146.18,29.4,147.26,29.81Z"/><path class="cls-2" d="M135.56,51.21c0,2.33,0,4.66,0,7a.54.54,0,0,0,.31.55c3.73,2.1,7.46,4.22,11.18,6.33,1.44.81,2.88,1.62,4.31,2.45A1.72,1.72,0,0,1,150,70.69a3.54,3.54,0,0,1-.52-.25l-16.33-9.25a2,2,0,0,1-1.1-1.86q0-7.53,0-15.07a1.73,1.73,0,0,1,1-1.76,1.63,1.63,0,0,1,1.85.29,1.81,1.81,0,0,1,.58,1.47Z"/></g><rect class="cls-3" width="194.43" height="194.43"/></g></g></svg>