<svg xmlns="http://www.w3.org/2000/svg" viewBox="0 0 194.43 194.43"><g id="Layer_2" data-name="Layer 2"><g id="Layer_1-2" data-name="Layer 1"><g id="_4IKjDA.tif" data-name="4IKjDA.tif"><path  d="M98.11,40.07a58.47,58.47,0,0,1,15.34,2.06,4.07,4.07,0,0,0,2.37,0,2.82,2.82,0,0,1,3.42,1.24A3.65,3.65,0,0,0,121,44.76c19.4,8.9,31.4,23.82,34.82,44.95a58.43,58.43,0,0,1-44.22,66.19c-1.54.38-2.58.77-3.14,2.58a8.51,8.51,0,0,1-8,5.69A8.8,8.8,0,0,1,92,158.78a2.68,2.68,0,0,0-2.5-1.93,57.92,57.92,0,0,1-38.85-23.67,3.71,3.71,0,0,0-3-1.91c-3.62-.21-5.67-4.56-3.79-7.81a2.39,2.39,0,0,0,.12-2.38A58.71,58.71,0,0,1,80.11,42.9a52.3,52.3,0,0,1,7.27-1.84A58.53,58.53,0,0,1,98.11,40.07Zm10.72,112.32a9.78,9.78,0,0,0,1.15-.14A54.5,54.5,0,0,0,152,91.38c-2.88-20.23-14.12-34.43-32.55-43a2.58,2.58,0,0,0-2-.18,2.78,2.78,0,0,1-3.31-1.15,2.68,2.68,0,0,0-1.7-1.11,54.49,54.49,0,0,0-35.34,2.26C49.6,59.35,36,92.24,47.54,119.6A1.63,1.63,0,0,0,49,120.79a5.2,5.2,0,0,1,4.22,7.5,1.86,1.86,0,0,0,.27,2.18,54.56,54.56,0,0,0,26,19.83,45,45,0,0,0,11.85,2.77c1.36-4.1,4-6.66,8.28-6.91C104.12,145.89,107.11,148.25,108.83,152.39Z"/><path  d="M53.37,99.46A45.41,45.41,0,0,1,57,81.14,2.55,2.55,0,0,0,57,78.87a4.41,4.41,0,0,1,3.71-6.23,2.19,2.19,0,0,0,1.72-1A44.23,44.23,0,0,1,92.15,54.35,36.43,36.43,0,0,1,100.3,54a9.35,9.35,0,0,0,4.93-.45,3.4,3.4,0,0,1,4,1,5.62,5.62,0,0,0,2.58,1.56C129.6,62.6,140.11,75.23,142.41,94c2.9,23.66-14.1,45.57-37.49,49.11a44.79,44.79,0,0,1-51-36.95A49.2,49.2,0,0,1,53.37,99.46Zm85.43-.67a41,41,0,0,0-27.26-38.63,1.87,1.87,0,0,0-2.36.49,4.06,4.06,0,0,1-6.65-1.31,1.92,1.92,0,0,0-2-1.37C86.23,57.4,74.65,62.76,65.69,73.9a1.67,1.67,0,0,0-.26,1.78,4.36,4.36,0,0,1-3.21,5.81,2.38,2.38,0,0,0-1.86,1.71A40.78,40.78,0,1,0,138.8,98.79Z"/><path  d="M66.6,96.67c.26-8.64,4.59-17.22,13.19-23.59a3.84,3.84,0,0,0,1.58-2A3.37,3.37,0,0,1,85.82,69a2.89,2.89,0,0,0,2,0c15.38-5,31,1.4,38.41,15.85a2.77,2.77,0,0,0,1.32,1.34,3.48,3.48,0,0,1,1.59,5,2.54,2.54,0,0,0-.22,1.71A31.55,31.55,0,0,1,96,130.32C79.58,129.37,66.59,115.42,66.6,96.67Zm3.93.1c0,16.49,11.27,28.72,25.6,29.6A27.65,27.65,0,0,0,125.19,94a2,2,0,0,0-1-1.55A3.43,3.43,0,0,1,122.71,88a2,2,0,0,0-.18-1.83c-5.92-12-20.66-18-33.19-13.57A2,2,0,0,0,88,73.79a3.27,3.27,0,0,1-3.81,2.11,2.74,2.74,0,0,0-2.52.66C74.45,82.15,70.74,89.53,70.53,96.77Z"/><path d="M114.2,98.89A16.16,16.16,0,1,1,98.11,82.54,16.13,16.13,0,0,1,114.2,98.89Zm-3.93-.16A12.22,12.22,0,1,0,98.06,111,12.26,12.26,0,0,0,110.27,98.73Z"/></g></g></g></svg>