<svg xmlns="http://www.w3.org/2000/svg" viewBox="0 0 194.43 194.43"><g id="Layer_2" data-name="Layer 2"><g id="Layer_1-2" data-name="Layer 1"><g id="C16gW9.tif"><path d="M158.83,116.25c-.59.69-.91,0-1.28-.27-1.52-1-2.89-2.45-4.55-2.91-4.22-1.17-4.57-3.94-4.51-7.71.21-13.89.08-27.78.08-41.84h-102v71.23h61.52a27.53,27.53,0,0,0,0,9.92c-.9.72-1.83.4-2.69.4q-28.74,0-57.5,0c-7.35,0-11.74-4.33-11.75-11.61q0-34.35,0-68.68c0-7.45,4.36-11.73,11.9-11.73h97.83c7.46,0,10.23,1.85,13,8.66Z"/><path d="M107.49,124.48H57c-1.61-7.82.2-11.65,7.27-14.89a41.68,41.68,0,0,1,34-.81C106.6,112.07,108.2,114.9,107.49,124.48Z"/><path d="M138.4,119.64c1.73,4.14,3.35,7.86,4.84,11.63a2.67,2.67,0,0,0,2.76,1.95c4.05.21,8.09.71,12.66,1.15-3.37,2.89-6.35,5.59-9.5,8.08a3.14,3.14,0,0,0-1.15,3.72c.94,3.75,1.79,7.52,2.75,11.6-2.55-.83-4.33-2.35-6.32-3.47s-4-2.44-6-3.67l-12.79,7.56c1.1-4.45,2-8.34,3-12.21a3,3,0,0,0-1.13-3.5c-3.08-2.5-6-5.16-9.44-8.09,4.53-.43,8.61-.91,12.7-1.17a2.53,2.53,0,0,0,2.55-1.84C134.9,127.56,136.59,123.8,138.4,119.64Z"/><path d="M82,99A12.68,12.68,0,1,1,94.91,86.3,12.7,12.7,0,0,1,82,99Z"/><path d="M138.22,84v4.73H107.94c-.49-1.47-.19-3-.15-4.73Z"/><path d="M107.83,73.69h30.32v4.77H107.83Z"/><path d="M128,94.1v4.74H107.83V94.1Z"/></g></g></g></svg>