<svg xmlns="http://www.w3.org/2000/svg" viewBox="0 0 194.43 194.43"><defs><style>.cls-1{fill:none;}</style></defs><g id="Layer_2" data-name="Layer 2"><g id="Layer_1-2" data-name="Layer 1"><rect class="cls-1" width="194.43" height="194.43"/><g id="sj5dSd"><path d="M53.83,55.85c0,2.56,0,5,0,7.53A10.07,10.07,0,0,0,54,65.11,7.88,7.88,0,0,0,69.59,63.9c0-2.65,0-5.31,0-8h55.14a1.84,1.84,0,0,1,.09,1A76,76,0,0,0,125,65a7.86,7.86,0,0,0,15.63-1c.05-2.69,0-5.38,0-8.05.26-.24.55-.13.82-.13h8.89a9.88,9.88,0,0,1,10.05,10.06q0,42.23,0,84.45a9.86,9.86,0,0,1-10,10H44.18a9.86,9.86,0,0,1-10.1-10.15q0-37.83,0-75.64,0-4.41,0-8.81a9.88,9.88,0,0,1,9.88-10h9.87ZM42,79.55v.56q0,34.83,0,69.66c0,2.2.55,2.73,2.77,2.73H150c1.75,0,2.44-.67,2.44-2.39q0-34.88,0-69.74c0-.27.1-.56-.11-.82Z"/><path d="M65.66,55.9c0,2.66,0,5.31,0,8a3.86,3.86,0,0,1-3.39,3.79,3.91,3.91,0,0,1-4.36-2.88,5.08,5.08,0,0,1-.12-1.23q0-7.72,0-15.44a3.94,3.94,0,1,1,7.88,0C65.67,50.7,65.66,53.3,65.66,55.9Z"/><path d="M128.79,55.84c0-2.57,0-5.15,0-7.72a3.94,3.94,0,1,1,7.87,0V63.61a3.94,3.94,0,1,1-7.87,0C128.78,61,128.79,58.41,128.79,55.84Z"/><path d="M84.38,122.94H77.82a2,2,0,0,1-2.3-2.28q0-4.65,0-9.3a2,2,0,0,1,2.25-2.25q6.6,0,13.21,0a2,2,0,0,1,2.28,2.28c0,3.1,0,6.21,0,9.31A2,2,0,0,1,91,122.94C88.81,123,86.59,122.94,84.38,122.94Z"/><path d="M110,122.94c-2.18,0-4.37,0-6.56,0a2,2,0,0,1-2.25-2.24c0-3.13,0-6.25,0-9.38a2,2,0,0,1,2.21-2.21q6.65,0,13.28,0a2,2,0,0,1,2.28,2.24q0,4.7,0,9.39a2,2,0,0,1-2.23,2.2C114.47,123,112.23,122.94,110,122.94Z"/><path d="M58.73,122.94H52.17a2,2,0,0,1-2.31-2.28c0-3.08,0-6.15,0-9.23a2,2,0,0,1,2.28-2.32c4.43,0,8.86,0,13.29,0a2,2,0,0,1,2.21,2.21q0,4.73,0,9.47a2,2,0,0,1-2.17,2.15C63.21,123,61,122.94,58.73,122.94Z"/><path d="M135.68,122.94h-6.56c-1.56,0-2.31-.73-2.31-2.26v-9.31a2,2,0,0,1,2.24-2.26q6.64,0,13.29,0a2,2,0,0,1,2.24,2.28v9.3a2,2,0,0,1-2.25,2.26C140.11,123,137.9,122.94,135.68,122.94Z"/><path d="M84.4,101.23H77.68a2,2,0,0,1-2.16-2.16c0-3.18,0-6.37,0-9.55a2,2,0,0,1,2.06-2.1q6.81,0,13.62,0a1.91,1.91,0,0,1,2.06,2.08q0,4.78,0,9.55a1.93,1.93,0,0,1-2.2,2.18Z"/><path d="M135.68,101.23H129a2,2,0,0,1-2.22-2.17V89.59A2,2,0,0,1,129,87.42q6.72,0,13.46,0a2,2,0,0,1,2.15,2.18c0,3.16,0,6.32,0,9.47a2,2,0,0,1-2.17,2.16Z"/><path d="M84.44,130.82h6.65A2,2,0,0,1,93.26,133q0,4.68,0,9.38a2,2,0,0,1-2.18,2.22q-6.72,0-13.45,0a2,2,0,0,1-2.11-2.06c0-3.24,0-6.48,0-9.72a1.94,1.94,0,0,1,2.11-2.05h6.81Z"/><path d="M110,101.23h-6.64A2,2,0,0,1,101.17,99c0-3.16,0-6.31,0-9.47a2,2,0,0,1,2.17-2.15q6.69,0,13.37,0a2,2,0,0,1,2.23,2.2q0,4.69,0,9.38a2,2,0,0,1-2.27,2.23Z"/><path d="M58.74,144.64c-2.19,0-4.37,0-6.56,0a2.06,2.06,0,0,1-2.33-2.36v-9.13a2.06,2.06,0,0,1,2.35-2.34H65.33a2,2,0,0,1,2.3,2.27q0,4.66,0,9.31a2,2,0,0,1-2.24,2.25C63.17,144.65,61,144.64,58.74,144.64Z"/><path d="M110.1,130.81h6.56A2,2,0,0,1,119,133q0,4.69,0,9.39a2,2,0,0,1-2.22,2.21c-4.46,0-8.92,0-13.37,0a2,2,0,0,1-2.18-2.15c0-3.16,0-6.31,0-9.47a2,2,0,0,1,2.2-2.21Z"/></g></g></g></svg>